<?xml version="1.0" encoding="UTF-8"?>
<svg xmlns="http://www.w3.org/2000/svg" width="40.64mm" height="128.5mm" viewBox="0 0 40.64 128.5">
  <!-- Panel background -->
  <rect width="40.64" height="128.5" fill="#1a1a1a"/>

  <!-- Top accent stripe -->
  <rect x="0" y="0" width="40.64" height="3" fill="#e74c3c"/>

  <!-- Panel border -->
  <rect x="0.3" y="0.3" width="40.04" height="127.9" fill="none" stroke="#333333" stroke-width="0.6"/>

  <!-- MIDI indicator area -->
  <circle cx="7" cy="18" r="3" fill="none" stroke="#444444" stroke-width="0.3"/>

  <!-- TAKE button area -->
  <circle cx="20" cy="22" r="4" fill="none" stroke="#444444" stroke-width="0.3"/>

  <!-- TAKE indicator area -->
  <circle cx="27" cy="22" r="2" fill="none" stroke="#444444" stroke-width="0.3"/>

  <!-- Fader output areas - decorative rings -->
  <circle cx="10" cy="35" r="4.5" fill="none" stroke="#333333" stroke-width="0.4"/>
  <circle cx="10" cy="45" r="4.5" fill="none" stroke="#333333" stroke-width="0.4"/>
  <circle cx="10" cy="55" r="4.5" fill="none" stroke="#333333" stroke-width="0.4"/>
  <circle cx="10" cy="65" r="4.5" fill="none" stroke="#333333" stroke-width="0.4"/>
  <circle cx="10" cy="75" r="4.5" fill="none" stroke="#333333" stroke-width="0.4"/>
  <circle cx="10" cy="85" r="4.5" fill="none" stroke="#333333" stroke-width="0.4"/>
  <circle cx="10" cy="95" r="4.5" fill="none" stroke="#333333" stroke-width="0.4"/>
  <circle cx="10" cy="105" r="4.5" fill="none" stroke="#333333" stroke-width="0.4"/>

  <!-- Number indicators (simple dots for 1-8) -->
  <circle cx="3" cy="35" r="0.8" fill="#555555"/>
  <circle cx="3" cy="45" r="0.8" fill="#555555"/>
  <circle cx="3" cy="55" r="0.8" fill="#555555"/>
  <circle cx="3" cy="65" r="0.8" fill="#555555"/>
  <circle cx="3" cy="75" r="0.8" fill="#555555"/>
  <circle cx="3" cy="85" r="0.8" fill="#555555"/>
  <circle cx="3" cy="95" r="0.8" fill="#555555"/>
  <circle cx="3" cy="105" r="0.8" fill="#555555"/>

  <!-- Bottom accent -->
  <rect x="5" y="118" width="30.64" height="0.5" fill="#444444"/>

  <!-- Logo area - simple "LC" indicator -->
  <rect x="14" y="7" width="12" height="5" rx="1" fill="none" stroke="#e74c3c" stroke-width="0.5"/>
</svg>
