<?xml version="1.0" encoding="UTF-8"?>
<svg xmlns="http://www.w3.org/2000/svg" width="25.4mm" height="128.5mm" viewBox="0 0 25.4 128.5">
  <!-- Panel background -->
  <rect width="25.4" height="128.5" fill="#1a1a1a"/>

  <!-- Top accent stripe -->
  <rect x="0" y="0" width="25.4" height="3" fill="#2ecc71"/>

  <!-- Panel border -->
  <rect x="0.3" y="0.3" width="24.8" height="127.9" fill="none" stroke="#333333" stroke-width="0.6"/>

  <!-- Title area -->
  <text x="12.7" y="8" text-anchor="middle" font-family="sans-serif" font-size="2.5" fill="#2ecc71">GATES</text>

  <!-- Column labels -->
  <text x="7.5" y="16" text-anchor="middle" font-family="sans-serif" font-size="1.8" fill="#666666">FC</text>
  <text x="17.5" y="16" text-anchor="middle" font-family="sans-serif" font-size="1.8" fill="#666666">CT</text>

  <!-- Output decorative rings - Focus column -->
  <circle cx="7.5" cy="20" r="4" fill="none" stroke="#333333" stroke-width="0.4"/>
  <circle cx="7.5" cy="30" r="4" fill="none" stroke="#333333" stroke-width="0.4"/>
  <circle cx="7.5" cy="40" r="4" fill="none" stroke="#333333" stroke-width="0.4"/>
  <circle cx="7.5" cy="50" r="4" fill="none" stroke="#333333" stroke-width="0.4"/>
  <circle cx="7.5" cy="60" r="4" fill="none" stroke="#333333" stroke-width="0.4"/>
  <circle cx="7.5" cy="70" r="4" fill="none" stroke="#333333" stroke-width="0.4"/>
  <circle cx="7.5" cy="80" r="4" fill="none" stroke="#333333" stroke-width="0.4"/>
  <circle cx="7.5" cy="90" r="4" fill="none" stroke="#333333" stroke-width="0.4"/>

  <!-- Output decorative rings - Control column -->
  <circle cx="17.5" cy="20" r="4" fill="none" stroke="#333333" stroke-width="0.4"/>
  <circle cx="17.5" cy="30" r="4" fill="none" stroke="#333333" stroke-width="0.4"/>
  <circle cx="17.5" cy="40" r="4" fill="none" stroke="#333333" stroke-width="0.4"/>
  <circle cx="17.5" cy="50" r="4" fill="none" stroke="#333333" stroke-width="0.4"/>
  <circle cx="17.5" cy="60" r="4" fill="none" stroke="#333333" stroke-width="0.4"/>
  <circle cx="17.5" cy="70" r="4" fill="none" stroke="#333333" stroke-width="0.4"/>
  <circle cx="17.5" cy="80" r="4" fill="none" stroke="#333333" stroke-width="0.4"/>
  <circle cx="17.5" cy="90" r="4" fill="none" stroke="#333333" stroke-width="0.4"/>

  <!-- Row numbers -->
  <text x="2" y="21" font-family="sans-serif" font-size="1.5" fill="#555555">1</text>
  <text x="2" y="31" font-family="sans-serif" font-size="1.5" fill="#555555">2</text>
  <text x="2" y="41" font-family="sans-serif" font-size="1.5" fill="#555555">3</text>
  <text x="2" y="51" font-family="sans-serif" font-size="1.5" fill="#555555">4</text>
  <text x="2" y="61" font-family="sans-serif" font-size="1.5" fill="#555555">5</text>
  <text x="2" y="71" font-family="sans-serif" font-size="1.5" fill="#555555">6</text>
  <text x="2" y="81" font-family="sans-serif" font-size="1.5" fill="#555555">7</text>
  <text x="2" y="91" font-family="sans-serif" font-size="1.5" fill="#555555">8</text>

  <!-- Bottom accent -->
  <rect x="5" y="118" width="15.4" height="0.5" fill="#444444"/>
</svg>
